<?xml version="1.0" standalone="no"?>
<!DOCTYPE svg PUBLIC "-//W3C//DTD SVG 20010904//EN"
 "http://www.w3.org/TR/2001/REC-SVG-20010904/DTD/svg10.dtd">
<svg version="1.0" xmlns="http://www.w3.org/2000/svg"
 width="300.000000pt" height="200.000000pt" viewBox="0 0 300.000000 200.000000"
 preserveAspectRatio="xMidYMid meet">
<metadata>
Created by potrace 1.10, written by Peter Selinger 2001-2011
</metadata>
<g transform="translate(0.000000,200.000000) scale(0.100000,-0.100000)"
fill="#000000" stroke="none">
<path d="M480 1358 c-50 -26 -79 -61 -89 -107 -3 -17 -4 -116 -1 -221 l5 -189
34 -35 c33 -34 60 -49 114 -60 23 -6 27 -11 27 -42 0 -39 36 -84 68 -84 11 0
53 24 94 53 41 29 82 56 91 60 9 3 56 7 104 8 126 2 179 19 225 68 l38 40 0
209 c0 200 -1 210 -23 243 -12 19 -42 44 -67 57 -43 21 -54 22 -310 22 -256 0
-267 -1 -310 -22z m609 -26 c70 -35 76 -53 79 -245 4 -197 -3 -232 -53 -276
l-36 -31 -124 0 -125 0 -91 -66 c-116 -84 -133 -83 -137 4 l-3 62 -45 0 c-60
0 -100 25 -125 77 -19 39 -20 57 -17 222 3 163 5 182 24 208 44 60 63 63 354
63 233 0 269 -2 299 -18z"/>
<path d="M503 1266 l-28 -24 -3 -162 c-4 -180 3 -212 49 -235 15 -8 53 -15 84
-15 l55 0 0 -50 0 -50 68 50 69 50 119 0 c100 0 124 3 151 20 41 25 45 48 41
239 l-3 153 -28 24 -28 24 -259 0 -259 0 -28 -24z m191 -12 c13 -5 13 -9 -4
-26 -19 -21 -28 -27 -97 -65 -47 -26 -53 -38 -53 -102 0 -50 21 -82 57 -87 46
-7 64 -17 93 -54 34 -43 53 -48 84 -25 11 8 28 15 37 15 10 0 27 12 38 26 22
28 85 64 112 64 27 0 53 38 53 77 0 26 -7 42 -28 59 -15 13 -33 24 -40 24 -8
0 -19 7 -26 15 -7 8 -23 15 -36 15 -29 0 -74 19 -96 41 -25 25 -7 29 127 29
163 0 157 7 157 -199 -1 -137 -3 -167 -17 -180 -12 -12 -45 -17 -143 -21 -118
-5 -130 -7 -166 -32 l-40 -28 -25 29 c-22 25 -35 30 -84 34 -88 6 -91 12 -95
175 -4 146 6 207 36 215 26 7 138 8 156 1z m66 -38 c1 -6 1 -76 0 -156 -1
-145 -8 -173 -37 -148 -17 14 -19 298 -2 315 13 13 39 6 39 -11z m68 -38 c5
-7 10 -61 11 -119 0 -83 -3 -110 -14 -119 -12 -10 -18 -10 -30 0 -19 16 -22
219 -3 238 15 15 23 15 36 0z m-143 -98 c0 -88 -1 -95 -20 -95 -18 0 -20 8
-23 98 -3 98 -3 98 20 95 22 -3 23 -7 23 -98z m223 6 c3 -84 -6 -108 -33 -86
-11 9 -15 32 -15 85 0 75 4 88 30 83 12 -3 16 -20 18 -82z m-293 -21 c0 -53
-2 -60 -20 -60 -18 0 -20 8 -23 63 -3 61 -2 63 20 60 21 -3 23 -8 23 -63z
m363 53 c17 -17 15 -73 -3 -88 -22 -19 -44 4 -42 43 4 52 21 69 45 45z"/>
<path d="M1287 1192 c-14 -15 -17 -41 -17 -135 0 -104 2 -119 20 -137 27 -27
130 -28 180 -2 33 19 35 18 68 -1 39 -23 105 -27 151 -7 24 10 37 10 59 1 36
-15 135 -12 168 5 19 10 31 11 46 3 45 -24 79 -28 124 -14 28 8 55 10 68 6 25
-10 56 0 75 23 13 15 15 15 28 -4 15 -22 53 -26 84 -10 14 8 25 6 43 -6 14 -8
46 -16 71 -16 77 0 128 50 128 126 0 51 -23 89 -68 110 -45 22 -80 20 -132 -5
-40 -20 -45 -20 -62 -5 -9 9 -31 19 -48 22 -17 3 -40 19 -52 35 -31 41 -66 39
-92 -6 -20 -33 -24 -35 -59 -29 -48 8 -104 -10 -129 -42 -15 -19 -21 -21 -30
-10 -8 10 -6 17 9 31 25 23 26 47 2 68 -23 21 -171 24 -190 5 -9 -9 -18 -9
-37 0 -40 18 -125 15 -161 -7 -29 -18 -31 -18 -53 0 -33 27 -170 27 -194 1z
m401 -28 c26 -17 31 -74 8 -93 -13 -11 -12 -15 5 -32 24 -24 24 -50 -1 -81
-24 -31 -70 -41 -120 -28 -41 11 -56 25 -62 55 -2 16 3 20 25 20 18 1 32 -6
38 -17 13 -25 65 -24 79 1 14 27 -14 55 -46 47 -19 -5 -24 -2 -24 14 0 13 7
20 19 20 32 0 51 11 51 29 0 38 -60 57 -78 25 -6 -10 -19 -14 -40 -12 -30 3
-31 4 -19 28 23 46 109 59 165 24z m-220 0 c27 -18 30 -69 5 -96 -9 -10 -11
-18 -5 -18 18 0 33 -37 26 -65 -9 -37 -52 -55 -131 -55 l-68 0 0 125 0 125 75
0 c52 0 82 -5 98 -16z m452 -4 c0 -18 -7 -20 -60 -20 -60 0 -60 0 -60 -30 0
-29 2 -30 45 -30 38 0 45 -3 45 -20 0 -17 -7 -20 -45 -20 -44 0 -45 -1 -45
-33 l0 -33 58 1 c50 0 57 -2 57 -20 0 -18 -8 -20 -87 -23 l-88 -3 0 126 0 125
90 0 c83 0 90 -1 90 -20z m283 -21 c-6 -39 -5 -41 15 -30 32 17 69 13 92 -11
16 -18 20 -35 20 -95 l0 -73 -30 0 -30 0 0 69 c0 52 -4 70 -15 75 -41 15 -62
-25 -51 -100 6 -44 5 -44 -24 -44 l-30 0 0 125 0 125 29 0 c28 0 29 -1 24 -41z
m-99 -40 c50 -39 16 -69 -39 -33 -45 29 -92 -25 -65 -75 11 -22 63 -30 75 -11
3 6 17 10 31 10 38 0 27 -31 -19 -54 -72 -35 -147 10 -147 86 0 82 99 128 164
77z m405 7 c55 -29 66 -99 23 -148 -25 -27 -36 -31 -76 -31 -54 0 -91 27 -101
75 -19 84 73 145 154 104z m-950 -45 c9 -15 7 -20 -9 -24 -21 -6 -45 16 -35
33 10 16 33 12 44 -9z"/>
<path d="M1350 1105 c0 -32 2 -35 29 -35 40 0 64 25 51 51 -8 13 -21 19 -45
19 -33 0 -35 -2 -35 -35z"/>
<path d="M1350 1006 c0 -33 3 -36 28 -36 16 0 37 6 48 14 28 22 7 50 -40 54
-35 3 -36 2 -36 -32z"/>
<path d="M2432 1073 c-25 -10 -34 -53 -17 -79 29 -44 88 -26 88 27 0 44 -32
68 -71 52z"/>
</g>
</svg>
